<svg xmlns="http://www.w3.org/2000/svg" width="300" height="300" viewBox="0 0 300 300" version="1.1">
	<path d="M 47 31.332 C 25.614 37.677, 7.898 56.204, 2.373 78 C -5.792 110.208, 13.338 145.167, 44.750 155.443 L 50 157.161 50 162.164 C 50 187.437, 81.004 241.474, 113.627 273.059 C 127.004 286.012, 135.487 289.951, 150 289.951 C 164.513 289.951, 172.996 286.012, 186.373 273.059 C 218.996 241.474, 250 187.437, 250 162.164 L 250 157.161 255.250 155.443 C 278.321 147.896, 298.919 122.166, 298.988 100.809 C 298.995 98.779, 299.450 96.840, 300 96.500 C 300.550 96.160, 301 94.532, 301 92.882 C 301 91.137, 300.582 90.140, 300 90.500 C 299.399 90.871, 299 89.580, 299 87.269 C 299 70.009, 283.613 46.438, 266 36.716 C 247.638 26.581, 224.466 26.186, 205.034 35.677 C 195.453 40.356, 182.001 53.435, 177.091 62.846 C 174.066 68.644, 173.553 69.142, 171.140 68.623 C 156.943 65.570, 143.057 65.570, 128.860 68.623 C 126.448 69.142, 125.932 68.642, 122.899 62.846 C 115.316 48.356, 97.772 34.641, 81.540 30.515 C 72.462 28.207, 56.239 28.591, 47 31.332 M 52.500 48.351 C 16.901 60.130, 6.871 103.919, 34.154 128.448 C 39.433 133.195, 50.956 139.530, 52.007 138.263 C 52.355 137.844, 53.923 134.350, 55.491 130.500 C 63.541 110.732, 80.113 92.515, 101.181 80.273 C 105.482 77.774, 109 75.411, 109 75.020 C 109 74.630, 107.276 71.653, 105.170 68.405 C 96.274 54.692, 83.590 47.671, 67 47.277 C 60.320 47.118, 55.045 47.509, 52.500 48.351 M 221.500 48.351 C 215.119 50.462, 207.853 54.518, 203.088 58.627 C 199.200 61.982, 191 73.101, 191 75.020 C 191 75.411, 194.518 77.774, 198.819 80.273 C 219.931 92.540, 236.890 111.203, 244.458 130.500 C 248.060 139.683, 247.698 139.491, 254.765 135.959 C 290.341 118.182, 290.221 69.057, 254.559 51.432 C 247.037 47.714, 246.117 47.507, 236.072 47.274 C 229.341 47.117, 224.047 47.508, 221.500 48.351 M 136.500 85.593 C 108.072 91.944, 81.782 113.558, 71.607 138.944 C 67.479 149.242, 67.179 164.633, 70.892 175.500 C 82.123 208.364, 119.750 261.008, 138 269.391 C 144.455 272.357, 155.746 272.260, 162.485 269.182 C 179.716 261.311, 218.002 207.763, 228.750 176.500 C 232.841 164.599, 232.700 149.688, 228.393 138.944 C 214.217 103.575, 170.256 78.052, 136.500 85.593 M 108.750 189.080 C 103.646 192.053, 102.197 205.028, 106.290 211.102 C 108.242 213.999, 109.158 214.500, 112.500 214.500 C 118.043 214.500, 121 210.083, 121 201.802 C 121 191.208, 115.286 185.273, 108.750 189.080 M 183.750 189.080 C 178.646 192.053, 177.197 205.028, 181.290 211.102 C 183.242 213.999, 184.158 214.500, 187.500 214.500 C 193.043 214.500, 196 210.083, 196 201.802 C 196 191.208, 190.286 185.273, 183.750 189.080 M 133.200 236.200 C 128.936 240.464, 137.710 250.759, 147.091 252.497 C 152.899 253.574, 158.661 251.425, 163.601 246.342 C 172.168 237.527, 167.492 230.604, 158.543 238.854 C 151.478 245.366, 147.312 245.189, 140.563 238.089 C 137.452 234.817, 135.169 234.231, 133.200 236.200" stroke="none" fill="#333333" fill-rule="evenodd"/>
</svg>